<svg xmlns="http://www.w3.org/2000/svg" viewBox="0 0 1600 800"><svg width="800" height="800" viewBox="0 0 32 32" xmlns="http://www.w3.org/2000/svg" x="0"><title>file_type_css</title><polygon points="5.902 27.201 3.656 2 28.344 2 26.095 27.197 15.985 30 5.902 27.201" style="fill:#1572b6" /><polygon points="16 27.858 24.17 25.593 26.092 4.061 16 4.061 16 27.858" style="fill:#33a9dc" /><polygon points="16 13.191 20.09 13.191 20.372 10.026 16 10.026 16 6.935 16.011 6.935 23.75 6.935 23.676 7.764 22.917 16.282 16 16.282 16 13.191" style="fill:#fff" /><polygon points="16.019 21.218 16.005 21.222 12.563 20.292 12.343 17.827 10.67 17.827 9.24 17.827 9.673 22.68 16.004 24.438 16.019 24.434 16.019 21.218" style="fill:#ebebeb" /><polygon points="19.827 16.151 19.455 20.29 16.008 21.22 16.008 24.436 22.344 22.68 22.391 22.158 22.928 16.151 19.827 16.151" style="fill:#fff" /><polygon points="16.011 6.935 16.011 8.855 16.011 10.018 16.011 10.026 8.555 10.026 8.555 10.026 8.545 10.026 8.483 9.331 8.342 7.764 8.268 6.935 16.011 6.935" style="fill:#ebebeb" /><polygon points="16 13.191 16 15.111 16 16.274 16 16.282 12.611 16.282 12.611 16.282 12.601 16.282 12.539 15.587 12.399 14.02 12.325 13.191 16 13.191" style="fill:#ebebeb" /></svg><svg width="800" height="800" viewBox="0 0 15 15" fill="none" xmlns="http://www.w3.org/2000/svg" x="800"><path fill-rule="evenodd" clip-rule="evenodd" d="M7.5 3C5.63333 3 4.46667 4 4 5.99999C4.7 4.99999 5.51667 4.625 6.45 4.87499C6.98252 5.01763 7.36314 5.43155 7.78443 5.88974C8.47074 6.63613 9.26506 7.49999 11 7.49999C12.8667 7.49999 14.0333 6.49999 14.5 4.5C13.8 5.49999 12.9833 5.87499 12.05 5.62499C11.5175 5.48235 11.1369 5.06844 10.7156 4.61025C10.0293 3.86386 9.23494 3 7.5 3ZM4 7.49999C2.13333 7.49999 0.966667 8.49998 0.5 10.5C1.2 9.49998 2.01667 9.12498 2.95 9.37498C3.48252 9.51762 3.86314 9.93154 4.28443 10.3897C4.97074 11.1361 5.76506 12 7.5 12C9.36667 12 10.5333 11 11 8.99998C10.3 9.99998 9.48333 10.375 8.55 10.125C8.01748 9.98234 7.63686 9.56843 7.21557 9.11023C6.52926 8.36385 5.73494 7.49999 4 7.49999Z" stroke="#000000" stroke-linejoin="round" /></svg></svg>